<?xml version="1.0" encoding="UTF-8" standalone="no"?>
<svg
   id="ea9cf52e-762c-4b41-ab9b-717db2cb422a"
   width="504.17108"
   height="262.81418"
   data-name="Layer 1"
   version="1.1"
   viewBox="0 0 504.17108 262.81418"
   sodipodi:docname="slide-1.svg"
   inkscape:version="1.1.1 (3bf5ae0d25, 2021-09-20)"
   xmlns:inkscape="http://www.inkscape.org/namespaces/inkscape"
   xmlns:sodipodi="http://sodipodi.sourceforge.net/DTD/sodipodi-0.dtd"
   xmlns="http://www.w3.org/2000/svg"
   xmlns:svg="http://www.w3.org/2000/svg">
  <defs
     id="defs61" />
  <sodipodi:namedview
     id="namedview59"
     pagecolor="#ffffff"
     bordercolor="#999999"
     borderopacity="1"
     inkscape:pageshadow="0"
     inkscape:pageopacity="0"
     inkscape:pagecheckerboard="0"
     showgrid="false"
     width="504.17108px"
     fit-margin-top="0"
     fit-margin-left="0"
     fit-margin-right="0"
     fit-margin-bottom="0"
     inkscape:zoom="3.6807822"
     inkscape:cx="282.4128"
     inkscape:cy="259.59156"
     inkscape:window-width="1920"
     inkscape:window-height="1009"
     inkscape:window-x="-8"
     inkscape:window-y="-8"
     inkscape:window-maximized="1"
     inkscape:current-layer="ea9cf52e-762c-4b41-ab9b-717db2cb422a"
     height="262.81418px" />
  <path
     d="m 469.80312,256.74907 a 28.295595,28.295595 0 0 1 -2.41846,4.82485 c -0.26678,0.4218 -0.54597,0.83726 -0.84364,1.24027 h -24.70624 c -0.1735,-0.13024 -0.34095,-0.26676 -0.51477,-0.39697 -0.86813,-0.0682 -1.73018,-0.15504 -2.57351,-0.24799 0.0869,-0.0745 0.17985,-0.14898 0.26678,-0.22317 -0.44663,0.0373 -0.89299,0.0742 -1.33961,0.0929 0.35336,0.0433 0.71309,0.0869 1.07283,0.13024 -0.26677,0.21712 -0.5396,0.43423 -0.81845,0.64495 h -1.07918 l 0.72551,-0.77518 c -0.57653,0.0185 -1.14731,0.0309 -1.72386,0.0185 l 1.80472,-0.48357 1.94699,-0.52081 c 0.0745,0.0618 0.15503,0.12383 0.22952,0.18591 a 33.003673,33.003673 0 0 0 2.28223,-47.37223 44.239309,44.239309 0 0 1 18.82114,28.53248 25.771018,25.771018 0 0 1 0.24801,8.55789 c 0.2171,-0.24163 0.4339,-0.48357 0.64469,-0.73158 a 33.586601,33.586601 0 0 0 7.09436,-27.65188 44.265975,44.265975 0 0 1 0.88053,34.17572 z"
     fill="#e6e6e6"
     id="path2"
     style="stroke-width:0.620137" />
  <circle
     cx="346.55719"
     cy="31.926584"
     fill="#2f2e41"
     id="circle4"
     r="17.414679"
     style="stroke-width:0.620137" />
  <polygon
     points="637.65,412.1 631.81,364.81 649.91,364.81 649.91,412.1 "
     fill="#ffb8b8"
     id="polygon6"
     transform="matrix(0.62013665,0,0,0.62013665,-8.5226441e-8,9.017071e-5)" />
  <path
     d="m 389.99773,253.38793 h 14.66252 v 9.23198 h -23.89449 a 9.2319744,9.2319744 0 0 1 9.23197,-9.23198 z"
     fill="#2f2e41"
     id="path8"
     style="stroke-width:0.620137" />
  <polygon
     points="513.01,407.3 519.68,360.13 537.16,364.84 524.84,410.49 "
     fill="#ffb8b8"
     id="polygon10"
     transform="matrix(0.62013665,0,0,0.62013665,-8.5226441e-8,9.017071e-5)" />
  <path
     d="m 313.45428,249.07179 14.1571,3.81706 -2.40335,8.91383 -23.07032,-6.22059 a 9.2319744,9.2319744 0 0 1 11.31687,-6.51018 z"
     fill="#2f2e41"
     id="path12"
     style="stroke-width:0.620137" />
  <path
     d="m 339.8845,119.8725 -22.6387,128.28768 11.60957,2.32191 36.5707,-90.55236 27.2829,89.97564 13.93137,-1.74148 c 0,0 -6.38554,-128.86439 -26.70246,-139.89662 z"
     fill="#2f2e41"
     id="path14"
     style="stroke-width:0.620137" />
  <g
     fill="#ffb8b8"
     id="g22"
     transform="matrix(0.62013665,0,0,0.62013665,-8.5226441e-8,9.017071e-5)">
    <path
       d="m 490.18,267.3 a 10.056,10.056 0 0 0 3.5959,-14.994 l 20.133,-29.523 -18.567,-0.28816 -16.272,28.08 a 10.11,10.11 0 0 0 11.111,16.726 z"
       id="path16" />
    <path
       d="m 623.1,230.79 a 10.056,10.056 0 0 0 3.5959,-14.994 l 20.133,-29.523 -18.567,-0.28816 -16.272,28.08 a 10.11,10.11 0 0 0 11.111,16.726 z"
       id="path18" />
    <circle
       cx="559.56"
       cy="60.563999"
       r="24.561001"
       id="circle20" />
  </g>
  <g
     fill="#2c3590"
     id="g30"
     transform="matrix(0.62013665,0,0,0.62013665,-8.5226441e-8,9.017071e-5)">
    <path
       d="m 612.67,98.754 c -0.93606,-3.7442 -16.849,-2.8082 -16.849,-2.8082 0,0 -17.919,-4.1195 -17.749,-3.6044 -15.1,-1.1623 -33.519,4.5066 -36.202,5.3663 -5.4886,1.5142 -15.975,6.1462 -23.538,9.5532 a 4.3807,4.3807 0 0 0 -2.2109,5.7554 l 23.068,52.666 3.2762,34.166 75.821,-23.401 c -18.721,-7.4885 -4.6803,-73.949 -5.6164,-77.693 z"
       id="path24" />
    <polygon
       points="626.71,186.74 626.71,171.77 604.24,142.75 606.11,99.69 612.34,98.127 646.36,165.21 648.24,203.59 "
       id="polygon26" />
    <path
       d="m 524.21,104.84 -7.2056,3.2025 a 2.5032,2.5032 0 0 0 -1.449,1.8556 l -14.279,81.527 -14.041,41.187 18.721,9.3606 21.529,-51.483 7.4885,-37.442 z"
       id="path28" />
  </g>
  <path
     d="m 331.02895,30.37748 c 3.09138,-1.015032 6.35268,0.576261 9.37212,1.787667 2.97621,1.193893 6.15603,2.054272 9.35723,1.866184 3.20122,-0.188088 6.4389,-1.53999 8.37434,-4.096877 1.93545,-2.556877 2.27596,-6.388643 0.36021,-8.960351 -1.26111,-1.692848 -3.27345,-2.658775 -5.28859,-3.28772 -4.30555,-1.343835 -9.12408,-1.390218 -13.21697,0.50563 -4.09291,1.895839 -7.30211,5.901031 -7.63885,10.399069"
     fill="#2f2e41"
     id="path32"
     style="stroke-width:0.620137" />
  <path
     d="m 346.09207,18.245131 c -1.03836,-7.029868 2.81238,-14.3288807 8.06798,-16.947092 5.2556,-2.6182213 11.42167,-1.07377433 16.15642,2.8252749 4.73462,3.8990494 8.1858,9.8905651 10.75503,16.2599881 2.56922,6.369424 4.34758,13.190928 6.44072,19.833833 1.85894,5.899417 4.04114,11.802434 7.57189,16.314547 3.53073,4.512114 8.66455,7.447847 13.58409,6.208187 -4.04162,5.43408 -11.47687,4.493138 -16.08945,-0.154864 -4.61269,-4.64805 -7.01064,-11.912822 -8.89834,-18.984867 -1.8877,-7.072035 -3.52994,-14.470889 -7.18118,-20.331174 C 370.0033,12.843842 357.25577,9.7115313 348.15216,16.304212"
     fill="#2f2e41"
     id="path34"
     style="stroke-width:0.620137" />
  <rect
     y="261.879"
     width="504.17108"
     height="1"
     fill="#3f3d56"
     id="rect36"
     x="0"
     style="stroke-width:0.556838" />
  <path
     d="M 264.51309,142.57572 H 44.476202 a 6.6528259,6.6528259 0 0 1 -6.645386,-6.6454 V 83.504592 a 6.6528259,6.6528259 0 0 1 6.645386,-6.645385 H 264.51309 a 6.6528259,6.6528259 0 0 1 6.64539,6.645385 v 52.425728 a 6.6528259,6.6528259 0 0 1 -6.64539,6.6454 z M 44.476202,78.335755 a 5.1749783,5.1749783 0 0 0 -5.168717,5.168715 v 52.42573 a 5.1749783,5.1749783 0 0 0 5.168717,5.16871 H 264.51309 a 5.1749783,5.1749783 0 0 0 5.16871,-5.16871 V 83.50447 a 5.1749783,5.1749783 0 0 0 -5.16871,-5.168715 z"
     fill="#3f3d56"
     id="path38"
     style="stroke-width:0.620137" />
  <path
     d="M 253.80954,131.50007 H 55.185962 a 0.73839671,0.73839671 0 1 1 0,-1.47679 H 253.80954 a 0.73839671,0.73839671 0 1 1 0,1.47679 z"
     fill="#e6e6e6"
     id="path40"
     style="stroke-width:0.620137" />
  <path
     d="M 76.227198,107.1349 H 59.982717 a 0.73840017,0.73840017 0 0 0 0,1.4768 h 7.383968 v 13.05635 a 3.7185874,3.7185874 0 0 0 3.437417,3.75903 c 0.04614,0.002 0.09374,0.003 0.142055,0.003 a 3.5729793,3.5729793 0 0 0 2.918239,-1.60801 0.73809441,0.73809441 0 0 0 -1.181111,-0.8855 2.0954418,2.0954418 0 0 1 -1.817125,1.01529 2.2294532,2.2294532 0 0 1 -2.022638,-2.28365 v -13.05636 h 7.383967 a 0.73839671,0.73839671 0 1 0 0,-1.47679 z"
     fill="#2c3590"
     id="path42"
     style="stroke-width:0.620137" />
  <circle
     cx="131.60539"
     cy="165.46497"
     fill="#e6e6e6"
     id="circle44"
     r="5.9071116"
     style="stroke-width:0.620137" />
  <circle
     cx="154.49464"
     cy="165.46497"
     fill="#2c3590"
     id="circle46"
     r="5.9071116"
     style="stroke-width:0.620137" />
  <circle
     cx="177.3839"
     cy="165.46497"
     fill="#e6e6e6"
     id="circle48"
     r="5.9071116"
     style="stroke-width:0.620137" />
  <g
     fill="#3f3d56"
     id="g56"
     transform="matrix(0.62013665,0,0,0.62013665,-8.5226441e-8,9.017071e-5)">
    <path
       d="m 128.48,201.37 a 1.5009,1.5009 0 0 0 0,-3 1.5009,1.5009 0 0 0 0,3 z"
       id="path50" />
    <path
       d="m 138,201.37 a 1.5009,1.5009 0 0 0 0,-3 1.5009,1.5009 0 0 0 0,3 z"
       id="path52" />
    <path
       d="m 147.53,201.37 a 1.5009,1.5009 0 0 0 0,-3 1.5009,1.5009 0 0 0 0,3 z"
       id="path54" />
  </g>
</svg>
