<?xml version="1.0" encoding="UTF-8" standalone="no"?>
<svg
   id="ae72d77f-f397-4021-826a-c0dbbd2dad22"
   data-name="Layer 1"
   width="504.17108"
   height="262.81418"
   viewBox="0 0 504.17108 262.81418"
   version="1.1"
   sodipodi:docname="slide-3.svg"
   inkscape:version="1.1.1 (3bf5ae0d25, 2021-09-20)"
   xmlns:inkscape="http://www.inkscape.org/namespaces/inkscape"
   xmlns:sodipodi="http://sodipodi.sourceforge.net/DTD/sodipodi-0.dtd"
   xmlns="http://www.w3.org/2000/svg"
   xmlns:svg="http://www.w3.org/2000/svg">
  <defs
     id="defs85" />
  <sodipodi:namedview
     id="namedview83"
     pagecolor="#ffffff"
     bordercolor="#999999"
     borderopacity="1"
     inkscape:pageshadow="0"
     inkscape:pageopacity="0"
     inkscape:pagecheckerboard="0"
     showgrid="false"
     width="504.17108px"
     inkscape:zoom="1.3086452"
     inkscape:cx="90.551666"
     inkscape:cy="159.32508"
     inkscape:window-width="1920"
     inkscape:window-height="1009"
     inkscape:window-x="-8"
     inkscape:window-y="-8"
     inkscape:window-maximized="1"
     inkscape:current-layer="ae72d77f-f397-4021-826a-c0dbbd2dad22" />
  <path
     d="m 273.80964,256.77298 a 41.88058,41.88058 0 0 1 -8.98031,4.9 c -0.83356,0.33346 -1.67186,0.64376 -2.52419,0.92628 h -43.5024 c -0.17594,-0.30567 -0.34735,-0.61598 -0.52329,-0.92628 -3.52917,-6.3172 -6.72953,-12.87987 -7.63726,-20.01682 -1.08841,-8.56806 1.96382,-18.2708 9.50835,-22.48072 a 15.091394,15.091394 0 0 1 3.12143,-1.30605 c 0.44935,-0.13894 0.90775,-0.2501 1.37089,-0.34736 a 16.309984,16.309984 0 0 1 18.9656,21.20246 c 6.39596,-6.55803 5.20104,-17.19168 2.99638,-26.0793 -2.20917,-8.88762 -4.88602,-18.78025 -0.38897,-26.76475 2.49638,-4.44149 6.89144,-7.19716 11.81928,-8.30869 0.15287,-0.0324 0.30575,-0.0648 0.45388,-0.0926 a 23.808073,23.808073 0 0 1 17.10377,2.9965 c 9.42942,5.93743 14.26908,17.20558 15.83918,28.23753 2.53343,17.75671 -3.07058,37.56975 -17.62234,48.05983 z"
     fill="#f2f2f2"
     id="path2"
     style="stroke-width:0.463138" />
  <path
     d="m 228.05624,223.18158 a 36.657976,36.657976 0 0 1 3.16779,22.82807 37.655464,37.655464 0 0 1 -6.92855,15.66333 c -0.23609,0.31493 -0.47693,0.62524 -0.72249,0.92628 h -1.71825 c 0.26414,-0.30104 0.5233,-0.61135 0.76889,-0.92628 a 35.797883,35.797883 0 0 0 7.38239,-28.3672 36.137585,36.137585 0 0 0 -6.73403,-15.43639 c 0.44935,-0.13894 0.90775,-0.2501 1.37089,-0.34736 a 37.03202,37.03202 0 0 1 3.41336,5.65955 z"
     fill="#ffffff"
     id="path4"
     style="stroke-width:0.463138" />
  <path
     d="m 269.67374,228.30852 a 40.472951,40.472951 0 0 1 -2.79263,11.40246 35.142274,35.142274 0 0 1 -5.45589,8.91077 c -4.59881,5.5345 -10.68451,9.69811 -17.2935,12.46768 q -0.72252,0.30567 -1.45884,0.58355 c -0.85233,0.33346 -1.7137,0.63913 -2.57982,0.92628 h -4.69154 c 1.10697,-0.27789 2.20917,-0.58819 3.2976,-0.92628 a 55.025988,55.025988 0 0 0 7.55381,-2.97798 41.944025,41.944025 0 0 0 15.69106,-12.8706 c 4.39506,-6.06711 6.33581,-13.36153 6.66915,-20.77637 0.3521,-7.93356 -0.68069,-16.01069 -2.49164,-23.7312 a 99.491119,99.491119 0 0 0 -8.36882,-22.80028 0.71563623,0.71563623 0 0 1 0.28245,-0.9448 0.61895617,0.61895617 0 0 1 0.45388,-0.0926 0.53038566,0.53038566 0 0 1 0.35188,0.29641 c 0.45861,0.89388 0.90795,1.78771 1.33852,2.69083 a 100.97654,100.97654 0 0 1 7.88738,23.65709 c 1.58841,7.89187 2.44051,16.14962 1.60695,24.18507 z"
     fill="#ffffff"
     id="path6"
     style="stroke-width:0.463138" />
  <polygon
     points="592.86,505.136 576.613,497.172 555.799,539.633 566.808,545.029 "
     fill="#ffb8b8"
     id="polygon20"
     transform="matrix(0.46313802,0,0,0.46313802,56.547032,0)" />
  <path
     d="m 313.47432,247.62256 10.04051,4.92172 4e-4,2e-4 a 7.1258416,7.1258416 0 0 1 3.26179,9.53523 l -0.10193,0.20795 -16.43925,-8.05836 z"
     fill="#2f2e41"
     id="path22"
     style="stroke-width:0.463138" />
  <polygon
     points="682.985,511.155 664.891,511.155 664.893,558.443 677.153,558.442 "
     fill="#ffb8b8"
     id="polygon24"
     transform="matrix(0.46313802,0,0,0.46313802,56.547032,0)" />
  <path
     d="m 363.03584,254.92989 11.18191,-4.6e-4 h 4.7e-4 a 7.1258647,7.1258647 0 0 1 7.12605,7.12596 v 0.23157 l -18.30808,4.6e-4 z"
     fill="#2f2e41"
     id="path26"
     style="stroke-width:0.463138" />
  <circle
     cx="352.28787"
     cy="96.11422"
     r="11.375147"
     fill="#ffb8b8"
     id="circle28"
     style="stroke-width:0.463138" />
  <path
     d="m 363.61522,251.41248 a 2.0841906,2.0841906 0 0 1 -2.07971,-1.99321 l -4.39687,-58.52274 a 0.69488765,0.69488765 0 0 0 -1.30992,-0.29965 l -28.12705,53.69734 a 2.0946482,2.0946482 0 0 1 -2.77826,0.8971 l -7.84089,-3.92062 a 2.0882245,2.0882245 0 0 1 -0.93679,-2.78629 l 16.78355,-34.00897 11.11655,-25.47508 c 4.29081,-8.45181 8.84723,-12.80731 13.92954,-13.31545 5.21403,-0.52057 10.7822,3.06445 17.02575,10.96109 l 0.0509,0.0645 -9.3e-4,0.0821 -0.92628,71.48879 a 2.0743674,2.0743674 0 0 1 -1.88964,2.07214 l -8.41585,1.0493 q -0.10262,0.01 -0.20398,0.01 z"
     fill="#2f2e41"
     id="path30"
     style="stroke-width:0.463138" />
  <path
     d="m 340.28217,183.11462 a 4.9753389,4.9753389 0 0 0 1.09699,-7.54982 l 1.71525,-45.32059 -8.33649,1.03893 -0.70292,44.09037 a 5.0023121,5.0023121 0 0 0 6.22716,7.74111 z"
     fill="#ffb8b8"
     id="path32"
     style="stroke-width:0.463138" />
  <path
     d="m 345.55565,138.25683 -11.19508,-1.27218 a 2.2308803,2.2308803 0 0 1 -1.90389,-2.79046 l 2.89025,-10.85481 a 6.1955686,6.1955686 0 0 1 12.3077,1.43514 l 0.38247,11.19016 a 2.2308756,2.2308756 0 0 1 -2.48145,2.29213 z"
     fill="#2c3590"
     id="path34"
     style="stroke-width:0.463138" />
  <path
     d="m 393.78053,109.72755 a 4.8755558,4.8755558 0 0 0 -0.11083,0.75961 l -19.89522,11.47749 -4.83583,-2.7839 -5.15526,6.74897 8.08192,5.7603 a 3.7051041,3.7051041 0 0 0 4.44528,-0.1083 l 20.5154,-16.18474 a 4.8616061,4.8616061 0 1 0 -3.04547,-5.66943 z"
     fill="#ffb8b8"
     id="path36"
     style="stroke-width:0.463138" />
  <path
     d="m 373.10935,122.50825 -6.43008,8.3337 a 2.0841211,2.0841211 0 0 1 -3.15116,0.1726 l -7.27929,-7.55897 a 5.7880303,5.7880303 0 0 1 7.09837,-9.14428 l 9.12984,5.10507 a 2.0841211,2.0841211 0 0 1 0.63236,3.09188 z"
     fill="#2c3590"
     id="path38"
     style="stroke-width:0.463138" />
  <path
     d="m 378.35464,180.19007 -12.34441,-60.12879 a 11.275262,11.275262 0 0 0 -12.89844,-8.85432 l -4.11691,0.68617 a 11.040358,11.040358 0 0 0 -7.16914,4.47319 v 0 a 15.418059,15.418059 0 0 0 -2.30325,13.11132 l 6.81387,24.38661 -5.05675,26.12659 a 1.8506439,1.8506439 0 0 0 2.07801,2.18617 c 2.53166,-0.36222 6.70465,-0.87924 11.4975,-1.16096 l 2.59655,-10.0157 1.05609,9.85667 c 5.88759,-0.1648 12.2788,0.1237 17.5513,1.49344 a 1.8540063,1.8540063 0 0 0 2.29558,-2.16039 z"
     fill="#2c3590"
     id="path40"
     style="stroke-width:0.463138" />
  <path
     d="m 356.66495,93.5834 c 2.92366,2.000993 6.76249,4.057895 9.74855,1.927002 1.96071,-1.399182 2.57846,-3.990143 1.78336,-6.263882 -1.42982,-4.088846 -5.35824,-5.888943 -9.11479,-7.268757 -4.88352,-1.793761 -10.20096,-3.220772 -15.24239,-1.936171 -5.04144,1.284601 -9.49693,6.165715 -8.58685,11.288026 0.73186,4.119256 4.61748,7.546797 4.06589,11.694042 -0.55515,4.17387 -5.24911,6.37088 -9.39313,7.11685 -4.14402,0.74597 -8.78128,0.98566 -11.75942,3.96224 -3.79917,3.79717 -2.85045,10.5842 0.72441,14.59326 3.57486,4.00907 8.96952,5.82634 14.19694,7.06174 6.92602,1.63683 14.41705,2.49705 20.99501,-0.21943 6.57797,-2.71649 11.69686,-10.02895 9.79133,-16.8859 -0.80489,-2.89637 -2.70098,-5.34419 -4.53345,-7.72723 -1.83246,-2.38304 -3.68801,-4.87499 -4.38702,-7.79873 -0.58249,-2.43644 -0.15136,-5.265272 1.46436,-7.092884 a 2.0549434,2.0549434 0 0 0 0.27529,-2.402033 z"
     fill="#2f2e41"
     id="path42"
     style="stroke-width:0.463138" />
  <polygon
     points="156.4,503.554 174.012,507.704 163.168,553.731 151.235,550.919 "
     fill="#ffb8b8"
     id="polygon50"
     transform="matrix(0.46313802,0,0,0.46313802,56.547032,0)" />
  <path
     d="m 132.26366,262.14322 -17.82021,-4.19838 0.0531,-0.2254 a 7.1258647,7.1258647 0 0 1 8.57008,-5.30223 l 4.4e-4,1.1e-4 10.88393,2.56425 z"
     fill="#2f2e41"
     id="path52"
     style="stroke-width:0.463138" />
  <polygon
     points="191.578,506.843 209.672,506.844 209.67,554.131 197.41,554.131 "
     fill="#ffb8b8"
     id="polygon54"
     transform="matrix(0.46313802,0,0,0.46313802,56.547032,0)" />
  <path
     d="m 155.10107,262.14322 -18.30809,-4.6e-4 v -0.23157 a 7.1258647,7.1258647 0 0 1 7.12606,-7.12595 h 4.6e-4 l 11.18191,4.7e-4 z"
     fill="#2f2e41"
     id="path56"
     style="stroke-width:0.463138" />
  <path
     d="m 184.31924,170.02531 a 4.9753621,4.9753621 0 0 0 -2.42437,-7.23364 l -16.62397,-42.15626 -9.24909,5.61462 19.24915,39.67273 a 5.0023121,5.0023121 0 0 0 9.04828,4.10255 z"
     fill="#ffb8b8"
     id="path58"
     style="stroke-width:0.463138" />
  <path
     d="m 168.80388,127.6071 -10.56643,3.91135 a 2.2308803,2.2308803 0 0 1 -2.95742,-1.63251 l -2.31362,-10.99216 a 6.1955686,6.1955686 0 0 1 11.63304,-4.26746 l 5.38609,9.81609 a 2.2308756,2.2308756 0 0 1 -1.18166,3.16467 z"
     fill="#2c3590"
     id="path60"
     style="stroke-width:0.463138" />
  <path
     d="m 153.2759,248.77711 q -0.0415,0 -0.0834,-0.001 l -8.04815,-0.32202 a 2.0721304,2.0721304 0 0 1 -2.00056,-2.11126 l 0.61748,-44.46125 a 0.69470703,0.69470703 0 0 0 -1.38557,-0.0823 l -4.66881,44.5101 a 2.0905078,2.0905078 0 0 1 -1.7301,1.83853 l -0.0279,0.005 -7.5555,-0.59385 a 2.083908,2.083908 0 0 1 -2.39788,-2.07244 l 0.45172,-75.38927 37.07466,2.34644 -8.17434,74.47748 a 2.0910126,2.0910126 0 0 1 -2.07158,1.85662 z"
     fill="#2f2e41"
     id="path62"
     style="stroke-width:0.463138" />
  <circle
     cx="146.49919"
     cy="92.909668"
     r="11.375147"
     fill="#ffb8b8"
     id="circle64"
     style="stroke-width:0.463138" />
  <path
     d="m 161.67842,175.76231 q -0.0784,0 -0.15739,-0.005 l -34.26464,-2.50701 a 2.0835977,2.0835977 0 0 1 -1.9317,-2.12256 l 0.90344,-43.02751 a 19.409707,19.409707 0 1 1 38.73658,1.29036 c -0.59916,6.63138 -1.07576,35.60147 -1.2076,44.3224 a 2.0818054,2.0818054 0 0 1 -2.07869,2.04974 z"
     fill="#2c3590"
     id="path66"
     style="stroke-width:0.463138" />
  <path
     d="m 100.61585,105.68424 a 4.8756345,4.8756345 0 0 1 0.11083,0.75961 l 19.89523,11.47749 4.83581,-2.7839 5.15526,6.74898 -8.08191,5.7603 a 3.7051041,3.7051041 0 0 1 -4.44529,-0.10831 L 97.570378,111.35366 a 4.8616061,4.8616061 0 1 1 3.045472,-5.66942 z"
     fill="#ffb8b8"
     id="path68"
     style="stroke-width:0.463138" />
  <path
     d="m 120.89526,116.77407 a 2.0818888,2.0818888 0 0 1 1.02412,-1.40099 l 9.12984,-5.10507 a 5.7880257,5.7880257 0 0 1 7.09833,9.14425 l -7.27929,7.55898 a 2.0841211,2.0841211 0 0 1 -3.15115,-0.1726 l -6.43009,-8.33371 a 2.0818054,2.0818054 0 0 1 -0.39176,-1.69086 z"
     fill="#2c3590"
     id="path70"
     style="stroke-width:0.463138" />
  <path
     d="m 152.37756,101.91532 a 10.36093,10.36093 0 0 1 -8.72929,-4.90185 c -0.10019,-0.156944 -0.64767,-0.9611 -1.28166,-1.891919 -1.78154,-2.616007 -2.19923,-3.238349 -2.23464,-3.329708 -0.48213,-1.24378 -2.01234,-1.724105 -3.2111,-1.908184 -0.22365,-0.03436 -0.45047,-0.06468 -0.67809,-0.09543 -1.68837,-0.226146 -3.43417,-0.459975 -4.39132,-2.315691 -0.70218,-1.361824 -1.85041,-6.907272 -0.96857,-8.262312 1.10551,-1.69968 3.2284,-1.147893 5.28142,-0.613746 1.31366,0.341018 2.67175,0.694244 3.75406,0.469015 4.6912,-0.976026 10.00836,-2.08231 14.70407,0.777474 3.73733,2.275439 5.98529,6.573036 5.86657,11.215721 -0.12743,4.985519 -2.3018,8.920831 -5.81648,10.52735 l -0.73168,0.21304 -0.41158,0.0506 a 10.184664,10.184664 0 0 1 -1.15171,0.0656 z"
     fill="#2f2e41"
     id="path72"
     style="stroke-width:0.463138" />
  <path
     d="m 504.3064,262.13612 a 0.62606397,0.46456448 0 0 1 -0.62414,0.46314 H 0.62414231 a 0.62414429,0.46314 0 1 1 0,-0.92628 H 503.68226 a 0.62606397,0.46456448 0 0 1 0.62414,0.46314 z"
     fill="#3f3d56"
     id="path80"
     style="stroke-width:0.537646" />
  <g
     id="g103"
     transform="translate(1.9991563,-9.640833)">
    <path
       d="M 154.94984,68.544427 A 19.451797,19.451797 0 1 1 174.40163,49.09263 19.47387,19.47387 0 0 1 154.94984,68.544427 Z m 0,-37.977318 A 18.525521,18.525521 0 1 0 173.47536,49.09263 18.546492,18.546492 0 0 0 154.94984,30.567109 Z"
       fill="#3f3d56"
       id="path10"
       style="stroke-width:0.463138" />
    <path
       d="m 166.06515,43.765496 2.31569,-0.463138 c 0,0 -1.94518,2.176749 -2.31569,2.31569 v 0 a 9.3203979,9.3203979 0 0 0 0,1.389414 c -4.44613,19.081287 -20.84121,10.652175 -20.84121,10.652175 5.97448,0.138941 6.48393,-2.31569 6.48393,-2.31569 -3.47353,-0.509452 -4.16824,-2.778829 -4.16824,-2.778829 a 1.4310965,1.4310965 0 0 0 1.85255,-0.463138 c -3.75142,-0.972589 -3.24196,-4.63138 -3.24196,-4.63138 a 4.8167327,4.8167327 0 0 0 2.26937,0.879962 c -0.41682,-0.509451 -3.93667,-4.724007 -1.80624,-6.900756 0,0 2.59358,4.63138 9.40171,5.048204 l 0.46313,-0.09263 a 3.6358187,3.6358187 0 0 1 -0.0926,-1.018904 4.8629492,4.8629492 0 0 1 4.86295,-4.862949 c 3.24197,0 3.93668,1.852552 3.93668,1.852552 l 2.31569,-1.389414 c -0.0463,0 -0.27789,2.31569 -1.43573,2.778828 z"
       fill="#3f3d56"
       id="path18"
       style="stroke-width:0.463138" />
  </g>
  <g
     id="g99"
     transform="translate(177.51872,4.334947)">
    <path
       d="m 264.83994,54.56865 a 19.451797,19.451797 0 1 1 19.4518,-19.451797 19.47387,19.47387 0 0 1 -19.4518,19.451797 z m 0,-37.977318 a 18.525521,18.525521 0 1 0 18.52553,18.525521 18.546459,18.546459 0 0 0 -18.52553,-18.525521 z"
       fill="#3f3d56"
       id="path12"
       style="stroke-width:0.463138" />
    <path
       d="m 270.1379,25.494105 a 4.9047103,4.9047103 0 0 1 4.89004,4.890042 v 9.779058 a 4.9047057,4.9047057 0 0 1 -4.89004,4.890038 h -9.77903 a 4.9047103,4.9047103 0 0 1 -4.89005,-4.890038 v -9.779058 a 4.9047103,4.9047103 0 0 1 4.89005,-4.890042 h 9.77903 m 0,-1.955703 h -9.77903 a 6.865771,6.865771 0 0 0 -6.84575,6.845745 v 9.779058 a 6.865771,6.865771 0 0 0 6.84575,6.845745 h 9.77903 a 6.865771,6.865771 0 0 0 6.84575,-6.845745 v -9.779058 a 6.865771,6.865771 0 0 0 -6.84575,-6.845745 z"
       fill="#3f3d56"
       id="path44"
       style="stroke-width:0.463138" />
    <path
       d="m 271.60481,30.384147 a 1.4637616,1.4637616 0 1 1 0.006,0 q -0.003,5e-6 -0.006,0 z"
       fill="#3f3d56"
       id="path46"
       style="stroke-width:0.463138" />
    <path
       d="m 265.24838,31.36173 a 3.9119277,3.9119277 0 1 1 -3.91193,3.911927 3.9119277,3.9119277 0 0 1 3.91193,-3.911927 m 0,-1.955702 a 5.8676299,5.8676299 0 1 0 5.86761,5.867634 5.8676345,5.8676345 0 0 0 -5.86761,-5.86763 z"
       fill="#3f3d56"
       id="path48"
       style="stroke-width:0.463138" />
  </g>
  <g
     id="g89"
     transform="translate(-171.66916,-51.995003)">
    <path
       d="M 423.75469,110.8986 A 19.451797,19.451797 0 1 1 443.2065,91.446802 19.47387,19.47387 0 0 1 423.75469,110.8986 Z m 0,-37.977319 a 18.525521,18.525521 0 1 0 18.52554,18.525521 18.546459,18.546459 0 0 0 -18.52554,-18.525521 z"
       fill="#3f3d56"
       id="path16"
       style="stroke-width:0.463138" />
    <path
       d="m 424.43583,78.84886 a 12.756646,12.756646 0 0 0 -5.1193,24.44055 11.296603,11.296603 0 0 1 0.22208,-2.92694 c 0.24486,-1.036394 1.64,-6.952922 1.64,-6.952922 a 4.8696971,4.8696971 0 0 1 -0.41,-2.015831 c 0,-1.890529 1.09333,-3.302776 2.46,-3.302776 1.16166,0 1.71972,0.87125 1.71972,1.913334 0,1.167358 -0.74597,2.909859 -1.1275,4.527082 a 1.9720648,1.9720648 0 0 0 2.01583,2.454299 c 2.41445,0 4.04306,-3.103485 4.04306,-6.782079 0,-2.795964 -1.88486,-4.885828 -5.30722,-4.885828 -3.86653,0 -6.28097,2.887082 -6.28097,6.110134 a 3.6768527,3.6768527 0 0 0 0.84278,2.499864 0.62346251,0.62346251 0 0 1 0.18222,0.7118 c -0.0626,0.233479 -0.19931,0.797229 -0.26195,1.024999 a 0.43824898,0.43824898 0 0 1 -0.63778,0.31889 c -1.78235,-0.72888 -2.61374,-2.676385 -2.61374,-4.874442 0,-3.621666 3.05791,-7.966525 9.1168,-7.966525 4.86875,0 8.07472,3.52486 8.07472,7.305969 0,5.005418 -2.78458,8.740968 -6.88458,8.740968 -1.37805,0 -2.67069,-0.74597 -3.11486,-1.58875 0,0 -0.74028,2.938344 -0.89972,3.507784 a 10.602225,10.602225 0 0 1 -1.28125,2.73333 12.75772,12.75772 0 1 0 3.62166,-24.99291 z"
       fill="#3f3d56"
       id="path74"
       style="stroke-width:0.463138" />
  </g>
  <g
     id="g93"
     transform="translate(18.132376,-10.567103)">
    <path
       d="m 329.08973,69.470703 a 19.451797,19.451797 0 1 1 19.4518,-19.451797 19.47387,19.47387 0 0 1 -19.4518,19.451797 z m 0,-37.977318 a 18.525521,18.525521 0 1 0 18.52552,18.525521 18.546459,18.546459 0 0 0 -18.52552,-18.525521 z"
       fill="#3f3d56"
       id="path14"
       style="stroke-width:0.463138" />
    <path
       d="m 340.37953,42.361697 -16.40641,-5.047538 a 1.6776851,1.6776851 0 0 0 -2.15076,1.014203 l -5.05874,16.442826 a 1.8096516,1.8096516 0 0 0 1.16147,2.201351 l 16.40157,5.046051 a 1.7178854,1.7178854 0 0 0 2.09533,-1.199375 l 5.05874,-16.442826 a 1.5767719,1.5767719 0 0 0 -1.1012,-2.014692 z m -17.03382,12.696655 -2.81623,-0.866434 2.69393,-8.756314 2.81624,0.866434 z m 1.79281,-10.490891 -0.0202,-0.0062 a 1.6019712,1.6019712 0 1 1 0.0202,0.0062 z m 8.49974,13.657477 -2.81624,-0.866434 1.47299,-4.787782 c 0.35291,-1.14703 0.18416,-2.056823 -0.83474,-2.370294 a 1.6110626,1.6110626 0 0 0 -1.76392,0.595235 1.9848243,1.9848243 0 0 0 -0.31017,0.661588 l -1.53442,4.987431 -2.81623,-0.866434 2.69393,-8.756314 2.81624,0.866434 -0.3749,1.218558 a 2.9836416,2.9836416 0 0 1 2.97774,-0.642095 c 1.84867,0.568733 2.87224,2.21756 2.064,4.844674 z"
       fill="#3f3d56"
       id="path76"
       style="stroke-width:0.463138" />
  </g>
  <g
     id="g107"
     transform="translate(-14.403954,-72.164463)">
    <path
       d="m 76.216374,131.06806 a 19.451797,19.451797 0 1 1 19.451794,-19.4518 19.47387,19.47387 0 0 1 -19.451794,19.4518 z m 0,-37.977318 A 18.525521,18.525521 0 1 0 94.741898,111.61626 18.546492,18.546492 0 0 0 76.216374,93.090742 Z"
       fill="#3f3d56"
       id="path8"
       style="stroke-width:0.463138" />
    <path
       d="m 88.932384,111.69262 a 12.71601,12.71601 0 1 0 -14.702886,12.56215 v -8.8853 h -3.229526 v -3.67685 h 3.229526 v -2.80207 c 0,-3.18639 1.898889,-4.94789 4.80313,-4.94789 a 19.54096,19.54096 0 0 1 2.84691,0.24864 v 3.12962 h -1.604264 c -1.578717,0 -2.072598,0.97981 -2.072598,1.98686 v 2.38539 h 3.526425 l -0.563139,3.67685 h -2.963286 v 8.88588 a 12.719423,12.719423 0 0 0 10.729703,-12.5633 z"
       fill="#3f3d56"
       fill-rule="evenodd"
       id="path78"
       style="stroke-width:0.463138" />
  </g>
</svg>
