<?xml version="1.0" encoding="UTF-8" standalone="no"?>
<svg
   id="b90d1e5d-c0c0-42b5-8a03-05d524a4d224"
   data-name="Layer 1"
   width="504.17108"
   height="262.81418"
   viewBox="0 0 504.1711 262.81419"
   version="1.1"
   sodipodi:docname="slide-2.svg"
   inkscape:version="1.1.1 (3bf5ae0d25, 2021-09-20)"
   xmlns:inkscape="http://www.inkscape.org/namespaces/inkscape"
   xmlns:sodipodi="http://sodipodi.sourceforge.net/DTD/sodipodi-0.dtd"
   xmlns="http://www.w3.org/2000/svg"
   xmlns:svg="http://www.w3.org/2000/svg"
   xmlns:rdf="http://www.w3.org/1999/02/22-rdf-syntax-ns#"
   xmlns:cc="http://creativecommons.org/ns#"
   xmlns:dc="http://purl.org/dc/elements/1.1/">
  <defs
     id="defs77" />
  <sodipodi:namedview
     id="namedview75"
     pagecolor="#ffffff"
     bordercolor="#999999"
     borderopacity="1"
     inkscape:pageshadow="0"
     inkscape:pageopacity="0"
     inkscape:pagecheckerboard="0"
     showgrid="false"
     width="504.17108px"
     inkscape:zoom="107.46808"
     inkscape:cx="5.1410614"
     inkscape:cy="264.80886"
     inkscape:window-width="1920"
     inkscape:window-height="1009"
     inkscape:window-x="-8"
     inkscape:window-y="-8"
     inkscape:window-maximized="1"
     inkscape:current-layer="b90d1e5d-c0c0-42b5-8a03-05d524a4d224"
     height="262.81418px" />
  <title
     id="title2">random_thoughts</title>
  <path
     d="m 465.00031,262.12562 c 9.67394,-36.17688 0.8798,-74.22533 -20.47569,-101.69853 l -183.33623,48.1414 174.19803,-58.63101 C 348.84405,65.060163 209.74947,144.89255 238.07514,261.75036 Z"
     fill="#e6e6e6"
     id="path4"
     style="stroke-width:0.448054" />
  <circle
     cx="125.0885"
     cy="117.23452"
     r="51.292759"
     fill="#e6e6e6"
     id="circle6"
     style="stroke-width:0.448054" />
  <path
     d="m 193.47885,136.02336 h -37.38967 a 130.77194,130.77194 0 0 1 0,-44.580002 h 37.38967 a 80.21445,80.21445 0 0 0 0,44.580002 z"
     fill="#ff6584"
     id="path8"
     style="stroke-width:0.448054" />
  <path
     d="m 185.1827,103.51815 h -22.75231 c -0.39265,0 -0.71101,-0.51147 -0.71101,-1.14355 0,-0.63209 0.31836,-1.14356 0.71101,-1.14356 h 22.75231 c 0.39265,0 0.71101,0.51147 0.71101,1.14356 0,0.63208 -0.31836,1.14355 -0.71101,1.14355 z"
     fill="#ffffff"
     id="path10"
     style="stroke-width:0.448054" />
  <path
     d="m 185.1827,114.12685 h -22.75231 c -0.39265,0 -0.71101,-0.51147 -0.71101,-1.14355 0,-0.63208 0.31836,-1.14356 0.71101,-1.14356 h 22.75231 c 0.39265,0 0.71101,0.51148 0.71101,1.14356 0,0.63208 -0.31836,1.14355 -0.71101,1.14355 z"
     fill="#ffffff"
     id="path12"
     style="stroke-width:0.448054" />
  <path
     d="M 77.302909,90.782652 H 125.4727 a 168.47592,168.47592 0 0 0 0,-57.433215 H 77.302909 a 103.34176,103.34176 0 0 1 0,57.433215 z"
     fill="#2c3590"
     id="path14"
     style="stroke-width:0.448054" />
  <path
     d="M 117.87252,50.082694 H 88.560313 c -0.505853,0 -0.916006,-0.658935 -0.916006,-1.47326 0,-0.814325 0.410144,-1.47326 0.916006,-1.47326 h 29.312197 c 0.50585,0 0.91601,0.65894 0.91601,1.47326 0,0.814321 -0.41014,1.47326 -0.916,1.47326 z"
     fill="#ffffff"
     id="path16"
     style="stroke-width:0.448054" />
  <path
     d="M 117.87252,63.750079 H 88.560313 c -0.505853,0 -0.916006,-0.65894 -0.916006,-1.473261 0,-0.81432 0.410144,-1.47326 0.916006,-1.47326 h 29.312197 c 0.50585,0 0.91601,0.658935 0.91601,1.47326 0,0.814325 -0.41014,1.473261 -0.916,1.473261 z"
     fill="#ffffff"
     id="path18"
     style="stroke-width:0.448054" />
  <path
     d="M 117.87252,77.417458 H 88.560313 c -0.505853,0 -0.916006,-0.658939 -0.916006,-1.47326 0,-0.81432 0.410144,-1.47326 0.916006,-1.47326 h 29.312197 c 0.50585,0 0.91601,0.65894 0.91601,1.47326 0,0.814321 -0.41014,1.47326 -0.916,1.47326 z"
     fill="#ffffff"
     id="path20"
     style="stroke-width:0.448054" />
  <path
     d="m 45.482401,180.07005 h 48.169791 a 168.47592,168.47592 0 0 0 0,-57.43321 H 45.482401 a 103.34176,103.34176 0 0 1 0,57.43321 z"
     fill="#2c3590"
     id="path22"
     style="stroke-width:0.448054" />
  <path
     d="M 86.052012,139.3701 H 56.73981 c -0.505853,0 -0.916006,-0.65894 -0.916006,-1.47326 0,-0.81433 0.410144,-1.47326 0.916006,-1.47326 h 29.312202 c 0.505853,0 0.916006,0.65893 0.916006,1.47326 0,0.81432 -0.410149,1.47326 -0.916006,1.47326 z"
     fill="#ffffff"
     id="path24"
     style="stroke-width:0.448054" />
  <path
     d="M 86.052012,153.03748 H 56.73981 c -0.505853,0 -0.916006,-0.65894 -0.916006,-1.47326 0,-0.81432 0.410144,-1.47326 0.916006,-1.47326 h 29.312202 c 0.505853,0 0.916006,0.65893 0.916006,1.47326 0,0.81432 -0.410149,1.47326 -0.916006,1.47326 z"
     fill="#ffffff"
     id="path26"
     style="stroke-width:0.448054" />
  <path
     d="m 323.06188,246.04758 6.9459,-11.65974 -9.81525,-3.9261 -0.89931,1.14911 c -2.24788,2.87233 -4.25472,8.94099 -6.98464,11.30037"
     fill="#ffb8b8"
     id="path28"
     style="stroke-width:0.448054" />
  <path
     d="m 326.39038,247.88836 -0.33887,10.12588 a 3.6622867,3.6622867 0 0 1 -3.69654,3.53963 l -7.65898,-0.0759 h -8.63742 c 0,0 -16.09702,-0.39261 -16.88223,-6.67437 -0.26174,-2.09392 1.52682,-3.48987 4.02789,-4.4205 a 61.281319,61.281319 0 0 0 16.66816,-9.32244 4.3267241,4.3267241 0 0 1 4.30495,-0.63953 l 9.97025,4.02137 a 3.5862788,3.5862788 0 0 1 2.24279,3.44589 z"
     fill="#2f2e41"
     id="path30"
     style="stroke-width:0.448054" />
  <circle
     cx="308.40677"
     cy="245.11507"
     r="0.78521931"
     fill="#ffffff"
     id="circle32"
     style="stroke-width:0.448054" />
  <circle
     cx="310.92905"
     cy="242.37703"
     r="0.78521931"
     fill="#ffffff"
     id="circle34"
     style="stroke-width:0.448054" />
  <path
     d="m 400.67438,230.68283 -3.3332,-13.15618 -9.7166,4.16426 0.17664,1.44845 c 0.44153,3.62056 3.31369,9.33077 3.05167,12.92945"
     fill="#ffb8b8"
     id="path36"
     style="stroke-width:0.448054" />
  <path
     d="m 404.31503,229.61527 6.77758,7.24691 a 3.8983172,3.8983172 0 0 1 -0.11812,5.4465 l -5.30479,5.20064 -6.10757,6.10757 c 0,0 -11.65993,11.10469 -16.65704,7.21805 -1.6657,-1.29555 -1.38807,-3.54733 -0.27762,-5.9739 a 61.259907,61.259907 0 0 0 5.20825,-18.49936 4.1101482,4.1101482 0 0 1 2.46553,-3.32731 l 10.0255,-4.26258 a 3.5557932,3.5557932 0 0 1 3.98828,0.84348 z"
     fill="#2f2e41"
     id="path38"
     style="stroke-width:0.448054" />
  <circle
     cx="389.65225"
     cy="240.38618"
     r="0.78521931"
     fill="#ffffff"
     id="circle40"
     style="stroke-width:0.448054" />
  <circle
     cx="389.49973"
     cy="236.66658"
     r="0.78521931"
     fill="#ffffff"
     id="circle42"
     style="stroke-width:0.448054" />
  <path
     d="m 341.78606,65.565515 4.31871,12.17091 11.38569,-6.674371 c 0,0 -5.88915,-7.066982 -5.49654,-10.993079 z"
     fill="#ffb8b8"
     id="path44"
     style="stroke-width:0.448054" />
  <circle
     cx="343.16022"
     cy="56.339176"
     r="10.993084"
     fill="#ffb8b8"
     id="circle46"
     style="stroke-width:0.448054" />
  <path
     d="m 359.06093,69.491616 -2.30287,0.643822 c 0,0 -4.76411,-0.251215 -7.11978,3.282279 -2.35566,3.533493 -4.09844,2.726552 -4.09844,2.726552 l -9.64291,14.54829 c 0,0 -3.14085,5.889152 -1.96305,12.563521 1.17781,6.67437 5.10393,16.09701 5.10393,16.09701 0,0 25.12705,2.35566 25.91227,1.17783 0.78522,-1.17783 0,-9.03003 0,-9.03003 l 3.14086,-34.942296 c 0,0 -3.53349,-5.889147 -5.49654,-5.889147 a 6.55539,6.55539 0 0 1 -3.53347,-1.177831 z"
     fill="#2c3590"
     id="path48"
     style="stroke-width:0.448054" />
  <path
     d="m 366.91313,118.17526 c 0,0 -6.67437,-0.39261 -9.42264,0.39261 -2.74827,0.78522 -19.2379,0 -19.2379,0 l -4.71132,29.44575 -15.3118,83.23334 16.48963,6.28177 19.6305,-46.72059 2.35567,6.67437 29.83836,32.58663 15.70441,-7.06698 -25.91227,-43.18711 -8.24481,-30.23097 c 0,0 5.10393,-17.27485 -1.96305,-27.87532 z"
     fill="#2f2e41"
     id="path50"
     style="stroke-width:0.448054" />
  <rect
     x="271.27939"
     y="252.84799"
     width="0.78525066"
     height="44.079113"
     transform="rotate(-19.24188)"
     opacity="0.2"
     id="rect52"
     style="stroke-width:0.448054" />
  <path
     d="m 363.52762,38.987689 c -0.62551,-2.474079 -2.71597,-4.079421 -4.66918,-3.58558 -0.0221,0.0056 -0.0426,0.0147 -0.0645,0.02079 A 2.9222671,2.9222671 0 0 1 359.496,35.1439 c 1.95322,-0.493845 4.04369,1.111497 4.66917,3.58558 0.61841,2.446026 -0.42822,4.822213 -2.33955,5.353041 1.49752,-0.830043 2.24776,-2.93613 1.70202,-5.094828 z"
     fill="#2f2e41"
     id="path54"
     style="stroke-width:0.448054" />
  <path
     d="m 363.06684,42.83775 c 1.97075,-1.621261 2.53079,-4.196815 1.25083,-5.752656 -0.0145,-0.01761 -0.0315,-0.03226 -0.0463,-0.04948 a 2.9223612,2.9223612 0 0 1 0.55185,0.515925 c 1.27996,1.555841 0.71993,4.131395 -1.25083,5.752656 -1.9484,1.602869 -4.54401,1.670055 -5.83955,0.167873 1.38964,1.00024 3.61449,0.780246 5.33402,-0.63432 z"
     fill="#2f2e41"
     id="path56"
     style="stroke-width:0.448054" />
  <ellipse
     cx="156.74979"
     cy="327.01559"
     rx="3.6478908"
     ry="4.6206608"
     transform="rotate(-57.87554)"
     fill="#2f2e41"
     id="ellipse58"
     style="stroke-width:0.448054" />
  <path
     d="m 356.50474,42.331221 a 5.4010682,5.4010682 0 0 1 2.91841,0.857105 5.5015489,5.5015489 0 0 1 1.85662,1.901403 5.4010682,5.4010682 0 0 1 -2.91841,-0.857128 5.5016967,5.5016967 0 0 1 -1.85662,-1.90138 z"
     fill="#2c3590"
     id="path60"
     style="stroke-width:0.448054" />
  <path
     d="m 341.59093,40.634776 v 0 c -1.66754,0 -2.19176,1.480106 -1.87466,3.032609 a 46.571407,46.571407 0 0 1 -2.05259,26.020537 h 10.08623 l 1.88838,-4.468793 0.73155,4.468793 h 13.20611 V 65.18091 c 4.44446,-18.256064 -4.98086,-27.165293 -21.98502,-24.546134 z"
     fill="#2f2e41"
     id="path62"
     style="stroke-width:0.448054" />
  <path
     d="m 339.9371,41.027383 h -1.01335 a 7.5417901,7.5417901 0 0 0 -7.54183,7.541786 v 2.666079 l 6.58053,-0.802501 0.48645,-1.945769 0.45769,1.830628 8.57234,-1.045409 v -0.703028 a 7.5417901,7.5417901 0 0 0 -7.54183,-7.541786 z"
     fill="#2f2e41"
     id="path64"
     style="stroke-width:0.448054" />
  <polygon
     points="631.515,266.206 622.324,266.685 640.277,201.363 "
     opacity="0.2"
     id="polygon66"
     transform="matrix(0.44805411,0,0,0.44805411,69.676503,-0.59552566)" />
  <path
     d="m 352.4959,124.6057 -7.80068,23.40203 c 0,0 -16.25141,18.20157 -7.15062,18.20157 9.10079,0 13.65116,-16.2514 13.65116,-16.2514 l 11.05096,-23.40202 z"
     fill="#ffb8b8"
     id="path68"
     style="stroke-width:0.448054" />
  <path
     d="m 360.62158,71.626123 c 0,0 5.28739,-2.288745 8.4974,3.473428 3.21001,5.762172 1.9035,27.729269 1.25345,30.979549 -0.65006,3.25028 -5.20046,23.40202 -5.20046,23.40202 l -15.60135,-3.25027 c 0,0 -1.30011,-9.10079 2.60023,-8.45075 z"
     fill="#2c3590"
     id="path70"
     style="stroke-width:0.448054" />
  <rect
     y="261.82428"
     width="504.17108"
     height="1"
     fill="#3f3d56"
     id="rect72"
     x="2.7367339e-10"
     style="stroke-width:0.354378" />
  <metadata
     id="metadata79">
    <rdf:RDF>
      <cc:Work
         rdf:about="">
        <dc:title>random_thoughts</dc:title>
      </cc:Work>
    </rdf:RDF>
  </metadata>
</svg>
